<svg xmlns="http://www.w3.org/2000/svg" width="31.23" height="18.689" viewBox="0 0 31.23 18.689">
  <g id="car-accident" transform="translate(0 -13)">
    <path id="Tracé_166" data-name="Tracé 166" d="M10.364,41.5a1.464,1.464,0,1,0,0,2.928,1.438,1.438,0,0,0,1.464-1.464A1.468,1.468,0,0,0,10.364,41.5Zm0,1.952a.488.488,0,1,1,.488-.488A.489.489,0,0,1,10.364,43.452ZM26.857,41.5a1.464,1.464,0,1,0,1.464,1.464A1.438,1.438,0,0,0,26.857,41.5Zm0,1.952a.488.488,0,1,1,.488-.488A.46.46,0,0,1,26.857,43.452Z" transform="translate(-4.557 -14.593)" fill="#2c2bfb"/>
    <path id="Tracé_167" data-name="Tracé 167" d="M30.742,13H27.619a.489.489,0,0,0-.488.488V24.174a2.586,2.586,0,0,1-.39-.732.923.923,0,0,0-.683-.586.993.993,0,0,0-.878.244l-.488.439-.927-.927a1.038,1.038,0,0,0-1.171-.2l-.537.293H20.25a14.492,14.492,0,0,0-3.513-2.684A6.915,6.915,0,0,0,14,19.148c-.488-.049-.976-.1-1.464-.1h0a12.946,12.946,0,0,0-9.271,3.66H2.44A2.447,2.447,0,0,0,0,25.15v1.708a3.011,3.011,0,0,0,2.928,2.977A3.208,3.208,0,0,0,5.807,31.64a3.253,3.253,0,0,0,2.879-1.757H19.47a3.165,3.165,0,0,0,2.879,1.757,3.253,3.253,0,0,0,2.879-1.757h2V31.2a.489.489,0,0,0,.488.488h3.025a.489.489,0,0,0,.488-.488V13.439A.451.451,0,0,0,30.742,13ZM16.3,20.807a13.31,13.31,0,0,1,2.586,1.854H13.029V19.978a5.377,5.377,0,0,1,.878.1A5.935,5.935,0,0,1,16.3,20.807Zm-4.245-.878v2.733H4.684A12.172,12.172,0,0,1,12.053,19.929ZM5.807,30.615a2.245,2.245,0,1,1,2.245-2.245A2.239,2.239,0,0,1,5.807,30.615Zm16.493,0a2.245,2.245,0,0,1,0-4.489,2.27,2.27,0,0,1,2.245,2.245A2.208,2.208,0,0,1,22.3,30.615Zm4.88-1.805H25.472c0-.146.049-.342.049-.488a3.221,3.221,0,0,0-6.441,0,1.66,1.66,0,0,0,.049.488H8.979c0-.146.049-.342.049-.488a3.221,3.221,0,0,0-6.441,0,1.351,1.351,0,0,0,.049.439,2,2,0,0,1-1.708-2V25.053a1.468,1.468,0,0,1,1.464-1.464H22.154a.44.44,0,0,0,.244-.049l.683-.342.927.927a.989.989,0,0,0,1.366.049l.488-.439A2.4,2.4,0,0,0,27.131,25.3V28.81ZM30.3,30.615H28.155V13.927H30.3Z" fill="#2c2bfb"/>
    <path id="Tracé_168" data-name="Tracé 168" d="M32.045,22.805a.444.444,0,0,0,.39.2.373.373,0,0,0,.244-.1.475.475,0,0,0,.146-.634L31.7,20.658l1.317.293a.5.5,0,0,0,.439-.1.554.554,0,0,0,.146-.39l-.488-3.513,2.245,2.44a.527.527,0,0,0,.342.146.368.368,0,0,0,.342-.2l.732-.927v1.659a.489.489,0,0,0,.488.488.461.461,0,0,0,.488-.488V17.047a.494.494,0,0,0-.293-.439.551.551,0,0,0-.537.146L35.7,18.267l-2.928-3.123a.445.445,0,0,0-.537-.1.428.428,0,0,0-.244.488l.634,4.294-1.805-.39a.464.464,0,0,0-.488.2.529.529,0,0,0,0,.537Zm-8.393,2.83H22.188a.489.489,0,0,0-.488.488.461.461,0,0,0,.488.488h1.464a.488.488,0,0,0,0-.976Z" transform="translate(-11.111 -1.022)" fill="#2c2bfb"/>
  </g>
</svg>
