<svg xmlns="http://www.w3.org/2000/svg" width="196" height="122" viewBox="0 0 196 122">
  <g id="Free-search" transform="translate(-82 -329)">
    <g id="Groupe_69" data-name="Groupe 69" transform="translate(131 351)">
      <path id="Tracé_1450" data-name="Tracé 1450" d="M0,0H24V24H0Z" fill="none"/>
      <path id="Tracé_1451" data-name="Tracé 1451" d="M12,18.26,4.947,22.208,6.522,14.28.587,8.792,8.614,7.84,12,.5l3.386,7.34,8.027.952L17.478,14.28l1.575,7.928Z" fill="#fcd222"/>
    </g>
    <g id="Groupe_73" data-name="Groupe 73" transform="translate(188 427)">
      <path id="Tracé_1450-2" data-name="Tracé 1450" d="M0,0H24V24H0Z" fill="none"/>
      <path id="Tracé_1451-2" data-name="Tracé 1451" d="M12,18.26,4.947,22.208,6.522,14.28.587,8.792,8.614,7.84,12,.5l3.386,7.34,8.027.952L17.478,14.28l1.575,7.928Z" fill="#fcd222"/>
    </g>
    <g id="Groupe_78" data-name="Groupe 78" transform="translate(100 329)">
      <path id="Tracé_1450-3" data-name="Tracé 1450" d="M0,0H24V24H0Z" fill="none"/>
      <path id="Tracé_1451-3" data-name="Tracé 1451" d="M12,18.26,4.947,22.208,6.522,14.28.587,8.792,8.614,7.84,12,.5l3.386,7.34,8.027.952L17.478,14.28l1.575,7.928Z" fill="#fcd222"/>
    </g>
    <g id="Groupe_76" data-name="Groupe 76" transform="translate(254 406)">
      <path id="Tracé_1450-4" data-name="Tracé 1450" d="M0,0H24V24H0Z" fill="none"/>
      <path id="Tracé_1451-4" data-name="Tracé 1451" d="M12,18.26,4.947,22.208,6.522,14.28.587,8.792,8.614,7.84,12,.5l3.386,7.34,8.027.952L17.478,14.28l1.575,7.928Z" fill="#fcd222"/>
    </g>
    <g id="Groupe_75" data-name="Groupe 75" transform="translate(112 423)">
      <path id="Tracé_1450-5" data-name="Tracé 1450" d="M0,0H24V24H0Z" fill="none"/>
      <path id="Tracé_1451-5" data-name="Tracé 1451" d="M12,18.26,4.947,22.208,6.522,14.28.587,8.792,8.614,7.84,12,.5l3.386,7.34,8.027.952L17.478,14.28l1.575,7.928Z" fill="#fcd222"/>
    </g>
    <g id="Groupe_77" data-name="Groupe 77" transform="translate(82 370)">
      <path id="Tracé_1450-6" data-name="Tracé 1450" d="M0,0H36V36H0Z" fill="none"/>
      <path id="Tracé_1451-6" data-name="Tracé 1451" d="M17.706,27.14,7.127,33.062,9.49,21.17l-8.9-8.232L12.628,11.51,17.706.5l5.079,11.01,12.041,1.428-8.9,8.232,2.363,11.892Z" transform="translate(0.294 0.25)" fill="#fcd222"/>
    </g>
    <g id="Groupe_74" data-name="Groupe 74" transform="translate(242 343)">
      <path id="Tracé_1450-7" data-name="Tracé 1450" d="M0,0H24V24H0Z" fill="none"/>
      <path id="Tracé_1451-7" data-name="Tracé 1451" d="M12,18.26,4.947,22.208,6.522,14.28.587,8.792,8.614,7.84,12,.5l3.386,7.34,8.027.952L17.478,14.28l1.575,7.928Z" fill="#fcd222"/>
    </g>
    <g id="Groupe_70" data-name="Groupe 70" transform="translate(143 382)">
      <path id="Tracé_1450-8" data-name="Tracé 1450" d="M0,0H36V36H0Z" fill="none"/>
      <path id="Tracé_1451-8" data-name="Tracé 1451" d="M17.706,27.14,7.127,33.062,9.49,21.17l-8.9-8.232L12.628,11.51,17.706.5l5.079,11.01,12.041,1.428-8.9,8.232,2.363,11.892Z" transform="translate(0.294 0.25)" fill="#fcd222"/>
    </g>
    <g id="Groupe_71" data-name="Groupe 71" transform="translate(170 331)">
      <path id="Tracé_1450-9" data-name="Tracé 1450" d="M0,0H36V36H0Z" fill="none"/>
      <path id="Tracé_1451-9" data-name="Tracé 1451" d="M17.706,27.14,7.127,33.062,9.49,21.17l-8.9-8.232L12.628,11.51,17.706.5l5.079,11.01,12.041,1.428-8.9,8.232,2.363,11.892Z" transform="translate(0.294 0.25)" fill="#fcd222"/>
    </g>
    <g id="Groupe_72" data-name="Groupe 72" transform="translate(194 363)">
      <path id="Tracé_1450-10" data-name="Tracé 1450" d="M0,0H48V48H0Z" fill="none"/>
      <path id="Tracé_1451-10" data-name="Tracé 1451" d="M23.413,36.02l-14.106,7.9,3.15-15.856L.587,17.084l16.054-1.9L23.413.5l6.772,14.68,16.054,1.9L34.369,28.06l3.15,15.856Z" transform="translate(0.587 0.5)" fill="#fcd222"/>
    </g>
  </g>
</svg>
