<svg xmlns="http://www.w3.org/2000/svg" width="138.836" height="138.836" viewBox="0 0 138.836 138.836">
  <g id="search" transform="translate(-118.082 -336.582)">
    <g id="Groupe_67" data-name="Groupe 67" transform="translate(118.082 336.582)">
      <path id="Tracé_1446" data-name="Tracé 1446" d="M0,0H138.836V138.836H0Z" fill="none"/>
      <path id="Tracé_1447" data-name="Tracé 1447" d="M54.063,2A52.063,52.063,0,1,1,2,54.063,52.082,52.082,0,0,1,54.063,2Zm0,92.557A40.494,40.494,0,1,0,13.57,54.063,40.486,40.486,0,0,0,54.063,94.557Zm49.084.411,16.365,16.359-8.186,8.186L94.968,103.148l8.18-8.18Z" transform="translate(9.57 9.57)" fill="#fcd222"/>
    </g>
    <g id="Groupe_68" data-name="Groupe 68" transform="translate(163 382)">
      <path id="Tracé_1448" data-name="Tracé 1448" d="M0,0H37V37H0Z" fill="none"/>
      <path id="Tracé_1449" data-name="Tracé 1449" d="M17.313,4.083a4.625,4.625,0,0,0-4.625,4.625v9.25a4.625,4.625,0,1,0,9.25,0V8.708A4.625,4.625,0,0,0,17.313,4.083Zm0-3.083a7.708,7.708,0,0,1,7.708,7.708v9.25a7.708,7.708,0,0,1-15.417,0V8.708A7.708,7.708,0,0,1,17.313,1ZM2.192,20.983l3.025-.606a12.338,12.338,0,0,0,24.192,0l3.025.606a15.421,15.421,0,0,1-30.241,0Z" transform="translate(1.187 0.542)" fill="#fff"/>
    </g>
  </g>
</svg>
