<svg xmlns="http://www.w3.org/2000/svg" width="97.166" height="97.166" viewBox="0 0 97.166 97.166">
  <path id="Tracé_1443" data-name="Tracé 1443" d="M50.583,2a48.621,48.621,0,0,1,47.49,58.873L89.415,52.21A38.866,38.866,0,1,0,68.16,85.252a19.419,19.419,0,0,0,7.555,6.913A48.585,48.585,0,1,1,50.583,2ZM84.591,61.135,91.46,68a9.717,9.717,0,1,1-14.235.534l.5-.534ZM50.583,65.158a24.229,24.229,0,0,1,17.976,7.953l-4.591,4.178a36.459,36.459,0,0,0-13.385-2.415A36.663,36.663,0,0,0,37.2,77.284l-4.591-4.178a24.228,24.228,0,0,1,17.976-7.948Zm-17-24.291a7.287,7.287,0,1,1-7.287,7.287A7.287,7.287,0,0,1,33.579,40.866Zm34.008,0A7.287,7.287,0,1,1,60.3,48.154a7.287,7.287,0,0,1,7.287-7.287Z" transform="translate(-2 -2)" fill="#fff"/>
</svg>
