<svg xmlns="http://www.w3.org/2000/svg" width="28" height="28" viewBox="0 0 28 28">
  <g id="user-icon" opacity="0.4">
    <path id="Tracé_1124" data-name="Tracé 1124" d="M0,0H28V28H0Z" fill="none"/>
    <path id="Tracé_1125" data-name="Tracé 1125" d="M22.667,25.5H20.333V23.167a3.5,3.5,0,0,0-3.5-3.5h-7a3.5,3.5,0,0,0-3.5,3.5V25.5H4V23.167a5.833,5.833,0,0,1,5.833-5.833h7a5.833,5.833,0,0,1,5.833,5.833ZM13.333,15a7,7,0,1,1,7-7A7,7,0,0,1,13.333,15Zm0-2.333A4.667,4.667,0,1,0,8.667,8,4.667,4.667,0,0,0,13.333,12.667Z" transform="translate(0.667 0.167)" fill="#fff"/>
  </g>
</svg>
