<svg id="Map_pin-3" data-name="Map pin-3" xmlns="http://www.w3.org/2000/svg" width="31.693" height="31.693" viewBox="0 0 31.693 31.693">
  <path id="Tracé_31" data-name="Tracé 31" d="M0,0H31.693V31.693H0Z" fill="none"/>
  <path id="Tracé_32" data-name="Tracé 32" d="M14.885,26.958l6.537-6.537a9.244,9.244,0,1,0-13.073,0Zm0,3.734-8.4-8.4a11.885,11.885,0,1,1,16.808,0Zm0-14.167a2.641,2.641,0,1,0-2.641-2.641A2.641,2.641,0,0,0,14.885,16.526Zm0,2.641a5.282,5.282,0,1,1,5.282-5.282A5.282,5.282,0,0,1,14.885,19.167Z" transform="translate(0.962 0.641)" fill="#39c926"/>
</svg>
