<svg id="Map_pin" data-name="Map pin" xmlns="http://www.w3.org/2000/svg" width="39" height="39" viewBox="0 0 39 39">
  <path id="Tracé_31" data-name="Tracé 31" d="M0,0H39V39H0Z" fill="none"/>
  <path id="Tracé_32" data-name="Tracé 32" d="M17.625,32.712l8.044-8.044a11.375,11.375,0,1,0-16.087,0Zm0,4.6L7.283,26.966a14.625,14.625,0,1,1,20.683,0Zm0-17.433a3.25,3.25,0,1,0-3.25-3.25A3.25,3.25,0,0,0,17.625,19.875Zm0,3.25a6.5,6.5,0,1,1,6.5-6.5A6.5,6.5,0,0,1,17.625,23.125Z" transform="translate(1.875 1.25)" fill="#fff"/>
</svg>
