<svg xmlns="http://www.w3.org/2000/svg" width="21.09" height="26.237" viewBox="0 0 21.09 26.237">
  <path id="path10635" d="M17.9,5.5A10.3,10.3,0,0,0,7.6,15.789c0,3.408,1.569,5.846,3.544,8.067s4.36,4.29,6.241,7.109a.613.613,0,0,0,1.02,0c1.881-2.819,4.265-4.889,6.241-7.109S28.19,19.2,28.19,15.789A10.3,10.3,0,0,0,17.9,5.5Zm0,1.226a9.057,9.057,0,0,1,9.07,9.063c0,3.041-1.336,5.119-3.233,7.253A78.678,78.678,0,0,0,17.9,29.658a78.678,78.678,0,0,0-5.836-6.616c-1.9-2.134-3.233-4.212-3.233-7.253A9.057,9.057,0,0,1,17.9,6.726Zm0,3.677a4.9,4.9,0,1,0,4.9,4.9A4.912,4.912,0,0,0,17.9,10.4Zm0,1.226A3.677,3.677,0,1,1,14.218,15.3,3.667,3.667,0,0,1,17.9,11.628Z" transform="translate(-7.35 -5.25)" stroke="#000" stroke-width="0.5"/>
</svg>
