<svg xmlns="http://www.w3.org/2000/svg" width="27.45" height="30.499" viewBox="0 0 27.45 30.499">
  <g id="police" transform="translate(-12 -7.999)">
    <path id="Tracé_155" data-name="Tracé 155" d="M39.226,12.8,34.651,8.223a.762.762,0,0,0-1.174.116c-1.1,1.656-2.235,2.515-3.363,2.554-1.433.032-2.88-1.339-3.786-2.515a.789.789,0,0,0-1.208,0c-.905,1.176-2.329,2.555-3.786,2.515-1.127-.039-2.258-.9-3.363-2.554A.762.762,0,0,0,17.413,8a.775.775,0,0,0-.614.22L12.223,12.8a.762.762,0,0,0-.057,1.016c1.988,2.484,1.442,5.219.863,8.115-1.071,5.366-2.286,11.449,12.446,16.529a.763.763,0,0,0,.5,0c14.732-5.08,13.518-11.162,12.446-16.529-.579-2.9-1.125-5.631.863-8.115a.762.762,0,0,0-.057-1.016Zm-2.3,9.429c1.036,5.184,2.015,10.081-11.2,14.7-13.214-4.621-12.235-9.518-11.2-14.7.584-2.923,1.186-5.94-.761-8.814l3.478-3.478a5.492,5.492,0,0,0,4.039,2.483c1.525.064,3-.748,4.443-2.377,1.448,1.629,2.929,2.446,4.443,2.377a5.492,5.492,0,0,0,4.039-2.483l3.478,3.478c-1.947,2.874-1.345,5.891-.761,8.814Z" fill="#69bfff"/>
    <path id="Tracé_156" data-name="Tracé 156" d="M43.072,33.278l-3.818-.555-1.707-3.459a.793.793,0,0,0-1.367,0l-1.707,3.459-3.818.555a.762.762,0,0,0-.423,1.3l2.763,2.693-.652,3.8a.762.762,0,0,0,1.106.8l3.415-1.8,3.415,1.8a.762.762,0,0,0,1.106-.8l-.652-3.8,2.763-2.693a.762.762,0,0,0-.423-1.3ZM39.38,36.459a.762.762,0,0,0-.219.675l.459,2.675-2.4-1.263a.762.762,0,0,0-.71,0l-2.4,1.263.459-2.675a.762.762,0,0,0-.219-.675L32.4,34.565l2.686-.391a.761.761,0,0,0,.574-.417l1.2-2.433,1.2,2.433a.761.761,0,0,0,.574.417l2.686.391Z" transform="translate(-11.138 -12.915)" fill="#69bfff"/>
  </g>
</svg>
