<svg xmlns="http://www.w3.org/2000/svg" width="30.899" height="30.899" viewBox="0 0 30.899 30.899">
  <g id="radar" transform="translate(0.207 0.207)">
    <g id="Layer_x0020_1" transform="translate(-0.007 -0.007)">
      <path id="Tracé_159" data-name="Tracé 159" d="M16.1.853A15.254,15.254,0,1,1,5.321,5.321,15.2,15.2,0,0,1,16.1.853ZM26.211,5.994A14.295,14.295,0,1,0,30.4,16.1,14.249,14.249,0,0,0,26.211,5.994Z" transform="translate(-0.853 -0.853)" fill="#4bb38f" stroke="#4bb38f" stroke-width="0.4"/>
      <path id="Tracé_160" data-name="Tracé 160" d="M23.218,8.7a.477.477,0,0,0-.882.345,10.277,10.277,0,1,1-9.579-6.559.477.477,0,0,0,0-.953A11.224,11.224,0,1,0,23.224,8.7Z" transform="translate(2.498 2.498)" fill="#4bb38f" stroke="#4bb38f" stroke-width="0.4"/>
      <path id="Tracé_161" data-name="Tracé 161" d="M15.657,7.157a.477.477,0,0,0-.911.268A5.895,5.895,0,1,1,9.1,3.219a.477.477,0,0,0,0-.953A6.844,6.844,0,1,0,15.937,9.1a6.883,6.883,0,0,0-.28-1.94Z" transform="translate(6.151 6.151)" fill="#4bb38f" stroke="#4bb38f" stroke-width="0.4"/>
      <path id="Tracé_162" data-name="Tracé 162" d="M9.218,6.947A.477.477,0,0,0,8.3,6.7,2.276,2.276,0,1,1,6.108,3.825a.477.477,0,1,0,0-.953A3.229,3.229,0,1,0,9.218,6.947Z" transform="translate(9.153 9.155)" fill="#4bb38f" stroke="#4bb38f" stroke-width="0.4"/>
      <path id="Tracé_163" data-name="Tracé 163" d="M4.088,9.9l-.8-1.394L15.65,2.295Z" transform="translate(11.197 6.295)" fill="#4bb38f" stroke="#4bb38f" stroke-width="0.4" fill-rule="evenodd"/>
      <path id="Tracé_164" data-name="Tracé 164" d="M4.305,3.233A1.072,1.072,0,1,1,3.233,4.305,1.072,1.072,0,0,1,4.305,3.233Z" transform="translate(10.944 10.944)" fill="#4bb38f" stroke="#4bb38f" stroke-width="0.4" fill-rule="evenodd"/>
    </g>
  </g>
</svg>
