<svg xmlns="http://www.w3.org/2000/svg" width="30.737" height="30.737" viewBox="0 0 30.737 30.737">
  <path id="road-block" d="M6.387,27.4A14.861,14.861,0,0,0,27.4,6.387c-.008-.01-.012-.022-.021-.032s-.022-.013-.032-.021A14.861,14.861,0,0,0,6.334,27.351c.008.01.012.022.021.032S6.377,27.395,6.387,27.4Zm10.482,3.433a13.913,13.913,0,0,1-9.546-3.785l5.886-5.886v1.507a.451.451,0,1,0,.9,0V20.264l5.517-5.517v7.925a.451.451,0,1,0,.9,0V13.846l6.523-6.523A13.957,13.957,0,0,1,16.869,30.836Zm0-27.935a13.913,13.913,0,0,1,9.546,3.785l-5.886,5.886V11.065a.451.451,0,1,0-.9,0v2.409L14.11,18.99V11.065a.451.451,0,1,0-.9,0v8.827L6.686,26.415A13.957,13.957,0,0,1,16.869,2.9Z" transform="translate(-1.5 -1.5)" fill="#2fded1" stroke="#2edacd" stroke-width="1"/>
</svg>
