<svg id="Sound-icon" xmlns="http://www.w3.org/2000/svg" width="20" height="20" viewBox="0 0 20 20">
  <path id="Tracé_13" data-name="Tracé 13" d="M0,0H20V20H0Z" fill="none"/>
  <path id="Tracé_14" data-name="Tracé 14" d="M8.482,6.575,5.658,8.865h-3v3.3h3l2.824,2.291ZM5.064,13.809H1.831A.828.828,0,0,1,1,12.985V8.041a.828.828,0,0,1,.831-.824H5.064l4.4-3.569a.419.419,0,0,1,.441-.054.412.412,0,0,1,.238.373V17.059a.412.412,0,0,1-.238.373.419.419,0,0,1-.441-.054l-4.4-3.569ZM16.3,17.215l-1.177-1.167a7.373,7.373,0,0,0-.244-11.276L16.06,3.6A9.011,9.011,0,0,1,16.3,17.215ZM13.356,14.3l-1.182-1.172a3.279,3.279,0,0,0-.267-5.406l1.2-1.186a4.917,4.917,0,0,1,.253,7.763Z" transform="translate(-0.144 -0.513)"/>
</svg>
