<svg xmlns="http://www.w3.org/2000/svg" width="31.807" height="26.899" viewBox="0 0 31.807 26.899">
  <g id="traffic" transform="translate(0.2 -9.8)">
    <path id="Tracé_150" data-name="Tracé 150" d="M21.1,14.907l.5-3.1a.978.978,0,0,1,.969-.826h8.359a.978.978,0,0,1,.969.826l.5,3.1h.488a2.451,2.451,0,0,1,.515.055l-.531-3.311A1.955,1.955,0,0,0,30.924,10H22.565a1.955,1.955,0,0,0-1.938,1.652L20.1,14.963a2.45,2.45,0,0,1,.515-.055Zm-16.194,0,.5-3.1a.978.978,0,0,1,.969-.826H14.73a.978.978,0,0,1,.969.826l.5,3.1h.488a2.451,2.451,0,0,1,.515.055l-.531-3.311A1.955,1.955,0,0,0,14.73,10H6.371a1.955,1.955,0,0,0-1.938,1.652L3.9,14.963a2.45,2.45,0,0,1,.515-.055Zm27.437,4.779a1.471,1.471,0,1,0-2.9-.362h.981a.491.491,0,1,1,.981,0c0,.014,0,.027,0,.04A2.929,2.929,0,0,1,32.341,19.686Zm-9.768-.853a.491.491,0,0,1,.491.491h.981a1.472,1.472,0,1,0-2.9.362,2.929,2.929,0,0,1,.939-.322c0-.013,0-.026,0-.04A.491.491,0,0,1,22.573,18.833Z" transform="translate(-2.944)" fill="#fece4c" stroke="#fece4c" stroke-width="0.4"/>
    <path id="Tracé_151" data-name="Tracé 151" d="M35.971,34H23.7a1.474,1.474,0,0,0-1.472,1.472V39.4a1.467,1.467,0,0,0,.435,1.043l.085-.528a2.953,2.953,0,0,1,.462-1.176V35.472a.491.491,0,0,1,.491-.491H35.971a.491.491,0,0,1,.491.491v3.264a2.952,2.952,0,0,1,.462,1.176l.085.529a1.468,1.468,0,0,0,.435-1.043V35.472A1.474,1.474,0,0,0,35.971,34Zm-26.5,2.944a.491.491,0,0,1,.491.491h.981a1.472,1.472,0,1,0-2.9.362,2.929,2.929,0,0,1,.939-.322c0-.013,0-.026,0-.04A.491.491,0,0,1,9.472,36.944Zm9.768.853a1.471,1.471,0,1,0-2.9-.362h.981a.491.491,0,0,1,.981,0c0,.014,0,.027,0,.04a2.929,2.929,0,0,1,.939.322Z" transform="translate(-6.037 -18.111)" fill="#fece4c" stroke="#fece4c" stroke-width="0.4"/>
    <path id="Tracé_152" data-name="Tracé 152" d="M13.74,34H1.472A1.474,1.474,0,0,0,0,35.472V39.4a1.467,1.467,0,0,0,.435,1.043l.085-.528a2.953,2.953,0,0,1,.462-1.176V35.472a.491.491,0,0,1,.491-.491H13.74a.491.491,0,0,1,.491.491v3.264a2.952,2.952,0,0,1,.462,1.176l.085.529a1.468,1.468,0,0,0,.435-1.043V35.472A1.474,1.474,0,0,0,13.74,34Zm3.411,9.379a2.45,2.45,0,0,1,.515-.055h.488l.5-3.1a.978.978,0,0,1,.969-.826H27.98a.978.978,0,0,1,.969.826l.5,3.1h.488a2.45,2.45,0,0,1,.515.055l-.531-3.311a1.955,1.955,0,0,0-1.938-1.652H19.621a1.955,1.955,0,0,0-1.938,1.652Zm12.783.926H17.666a1.474,1.474,0,0,0-1.472,1.472V49.7a1.472,1.472,0,0,0,.736,1.273v1.917a1.718,1.718,0,0,0,3.435,0V51.175h6.87v1.718a1.718,1.718,0,1,0,3.435,0V50.976a1.472,1.472,0,0,0,.736-1.273V45.777a1.474,1.474,0,0,0-1.472-1.472ZM19.384,52.893a.736.736,0,0,1-1.472,0V51.175h1.472Zm10.305,0a.736.736,0,1,1-1.472,0V51.175h1.472Zm.736-3.19a.491.491,0,0,1-.491.491H17.666a.491.491,0,0,1-.491-.491V45.777a.491.491,0,0,1,.491-.491H29.934a.491.491,0,0,1,.491.491Z" transform="translate(0 -18.111)" fill="#fece4c" stroke="#fece4c" stroke-width="0.4"/>
    <path id="Tracé_153" data-name="Tracé 153" d="M.957,56.963a2.451,2.451,0,0,1,.515-.055H1.96l.5-3.1a.978.978,0,0,1,.969-.826h8.359a.978.978,0,0,1,.969.826l.5,3.1h.488a2.451,2.451,0,0,1,.515.055l-.531-3.311A1.955,1.955,0,0,0,11.786,52H3.427a1.955,1.955,0,0,0-1.938,1.652Zm18.672,2.889A1.472,1.472,0,1,0,21.1,61.324,1.472,1.472,0,0,0,19.629,59.852Zm0,1.963a.491.491,0,1,1,.491-.491A.491.491,0,0,1,19.629,61.815Zm8.342-1.963a1.472,1.472,0,1,0,1.472,1.472A1.472,1.472,0,0,0,27.972,59.852Zm0,1.963a.491.491,0,1,1,.491-.491A.491.491,0,0,1,27.972,61.815ZM13.74,57.889H1.472A1.474,1.474,0,0,0,0,59.361v3.926A1.472,1.472,0,0,0,.736,64.56v1.917a1.718,1.718,0,1,0,3.435,0V64.759h6.87v1.718a1.718,1.718,0,1,0,3.435,0V64.56a1.472,1.472,0,0,0,.736-1.273V59.361a1.474,1.474,0,0,0-1.472-1.472ZM3.19,66.476a.736.736,0,1,1-1.472,0V64.759H3.19Zm10.305,0a.736.736,0,1,1-1.472,0V64.759H13.5Zm.736-3.19a.491.491,0,0,1-.491.491H1.472a.491.491,0,0,1-.491-.491V59.361a.491.491,0,0,1,.491-.491H13.74a.491.491,0,0,1,.491.491Z" transform="translate(0 -31.695)" fill="#fece4c" stroke="#fece4c" stroke-width="0.4"/>
    <path id="Tracé_154" data-name="Tracé 154" d="M9.472,84a1.472,1.472,0,1,0,1.472,1.472A1.472,1.472,0,0,0,9.472,84Zm0,1.963a.491.491,0,1,1,.491-.491A.491.491,0,0,1,9.472,85.963ZM17.815,84a1.472,1.472,0,1,0,1.472,1.472A1.472,1.472,0,0,0,17.815,84Zm0,1.963a.491.491,0,1,1,.491-.491A.491.491,0,0,1,17.815,85.963Z" transform="translate(-6.037 -55.843)" fill="#fece4c" stroke="#fece4c" stroke-width="0.4"/>
  </g>
</svg>
